<svg width="368" height="292" version="1.1"
     xmlns="http://www.w3.org/2000/svg" xmlns:xlink="http://www.w3.org/1999/xlink">

  <defs>
    <path id="arrow"
          d="M 26  0
             L  2 24
             L 26 48
             V 31
             H 46
             V 17
             H 26
             Z

             M 23  7
             V 20
             H 43
             V 28
             H 23
             V 41
             L  6 24
             Z

            "/>

    <path id="arrow_fill"
          d="M 26  0
             L  2 24
             L 26 48
             V 31
             H 46
             V 17
             H 26
             Z

            "/>

  <path id="onigiri"
        d="M 26  0
           L  6 20
           L  8 22
           L 28  2
           Z

           M 30  2
           V 22
           H 50
           V  2
           Z

           M 54  0
           L 52  2
           L 72 22
           L 74 20
           Z

           M  6 24
           Q -6 36  6 48
           L  8 46
           Q -3 36  8 26
           Z

           M 22 24
           L 19 29
           H 21
           L 26 24
           Z

           M 33 26
           H 30
           L 40 48
           L 50 26
           H 47
           L 40 42
           Z

           M 34 30
           V 33
           H 46
           V 30
           Z

           M 54 24
           L 59 29
           H 61
           L 58 24
           Z

           M 74 24
           Q 86 36 74 48
           L 72 46
           Q 83 36 72 26
           Z

          "/>

  <path id="onigiri_fill"
        d="M 26  0
           L  6 20
           L  6 24
           Q -6 36  6 48
           L 74 48
           Q 86 36 74 24
           L 74 20
           L 54  0
           Z

          "/>

  <rect id="arrow_bar"
        fill-opacity="0.5"
        x="0"
        y="0"
        width="44"
        height="100"/>

  <rect id="onigiri_bar"
        fill-opacity="0.5"
        x="0"
        y="0"
        width="68"
        height="100"/>

  </defs>

  <use xlink:href="#arrow"        transform="translate(  0,  0) rotate(  0, 24,   24)"/>
  <use xlink:href="#arrow"        transform="translate( 48,  0) rotate(-45, 24.5, 24.5)"/>
  <use xlink:href="#arrow"        transform="translate( 96,  0) rotate(-90, 24,   24)"/>
  <use xlink:href="#onigiri"      transform="translate(144,  0) rotate(  0, 40,   24)"/>
  <use xlink:href="#arrow"        transform="translate(224,  0) rotate( 90, 24,   24)"/>
  <use xlink:href="#arrow"        transform="translate(272,  0) rotate(135, 24.5, 24.5)"/>
  <use xlink:href="#arrow"        transform="translate(320,  0) rotate(180, 24,   24)"/>

  <use xlink:href="#arrow_fill"   transform="translate(  0, 48) rotate(  0, 24,   24)"/>
  <use xlink:href="#arrow_fill"   transform="translate( 48, 48) rotate(-45, 24.5, 24.5)"/>
  <use xlink:href="#arrow_fill"   transform="translate( 96, 48) rotate(-90, 24,   24)"/>
  <use xlink:href="#onigiri_fill" transform="translate(144, 48) rotate(  0, 40,   24)"/>
  <use xlink:href="#arrow_fill"   transform="translate(224, 48) rotate( 90, 24,   24)"/>
  <use xlink:href="#arrow_fill"   transform="translate(272, 48) rotate(135, 24.5, 24.5)"/>
  <use xlink:href="#arrow_fill"   transform="translate(320, 48) rotate(180, 24,   24)"/>

  <use xlink:href="#arrow_bar"    transform="translate(  2, 96)"/>
  <use xlink:href="#arrow_bar"    transform="translate( 50, 96)"/>
  <use xlink:href="#arrow_bar"    transform="translate( 98, 96)"/>
  <use xlink:href="#onigiri_bar"  transform="translate(150, 96)"/>
  <use xlink:href="#arrow_bar"    transform="translate(226, 96)"/>
  <use xlink:href="#arrow_bar"    transform="translate(274, 96)"/>
  <use xlink:href="#arrow_bar"    transform="translate(322, 96)"/>

  <use xlink:href="#arrow"   fill="gray" transform="translate(  0, 196) rotate(  0, 24,   24)"/>
  <use xlink:href="#arrow"   fill="gray" transform="translate( 48, 196) rotate(-45, 24.5, 24.5)"/>
  <use xlink:href="#arrow"   fill="gray" transform="translate( 96, 196) rotate(-90, 24,   24)"/>
  <use xlink:href="#onigiri" fill="gray" transform="translate(144, 196) rotate(  0, 40,   24)"/>
  <use xlink:href="#arrow"   fill="gray" transform="translate(224, 196) rotate( 90, 24,   24)"/>
  <use xlink:href="#arrow"   fill="gray" transform="translate(272, 196) rotate(135, 24.5, 24.5)"/>
  <use xlink:href="#arrow"   fill="gray" transform="translate(320, 196) rotate(180, 24,   24)"/>

  <use xlink:href="#arrow_fill" fill="white" transform="translate(  0, 244) rotate(  0, 24,   24)"/>
  <use xlink:href="#arrow_fill" fill="white" transform="translate( 48, 244) rotate(-45, 24.5, 24.5)"/>
  <use xlink:href="#arrow_fill" fill="white" transform="translate( 96, 244) rotate(-90, 24,   24)"/>
  <use xlink:href="#onigiri"    fill="white" transform="translate(144, 244) rotate(  0, 40,   24)"/>
  <use xlink:href="#arrow_fill" fill="white" transform="translate(224, 244) rotate( 90, 24,   24)"/>
  <use xlink:href="#arrow_fill" fill="white" transform="translate(272, 244) rotate(135, 24.5, 24.5)"/>
  <use xlink:href="#arrow_fill" fill="white" transform="translate(320, 244) rotate(180, 24,   24)"/>
</svg>
